# xmcd CD database file
#
# Track frame offsets:
#	183
#	14358
#	26058
#	40908
#	56733
#	70233
#	83583
#	96783
#	109008
#	121458
#	136008
#	150858
#	167508
#	176883
#
# Disc length: 2615 seconds
#
# Revision: 0
# Processed by: cddbd v1.4PL0 Copyright (c) Steve Scherf et al.
# Submitted via: CDex 1.51
#
DISCID=ab0a350e
DTITLE=Jonny Hill - Ausgewählte Goldstücke
DYEAR=1900
DGENRE=Country
TTITLE0=So weit die Füsse tragen
TTITLE1=Mutter, ich lasse dich grüßen
TTITLE2=Meine Freunde sind deine Freunde
TTITLE3=So schön ist Kanada
TTITLE4=Und die Sonne scheint über Mexico
TTITLE5=Männer wie Eisen
TTITLE6=Alles Liebe, Gute und Schöne
TTITLE7=Abschied ist kein Grund zum Weinen
TTITLE8=Herr General
TTITLE9=Tomm Dooley
TTITLE10=Reich dem andern die Hände
TTITLE11=Ich möcht nach Haus
TTITLE12=Das ist der Wind, den der Seemann braucht
TTITLE13=Er drückte mir zwei Scheine in die Hand
EXTD=
EXTT0=
EXTT1=
EXTT2=
EXTT3=
EXTT4=
EXTT5=
EXTT6=
EXTT7=
EXTT8=
EXTT9=
EXTT10=
EXTT11=
EXTT12=
EXTT13=
PLAYORDER=
